<?xml version="1.0" standalone="no"?>
<!DOCTYPE svg PUBLIC "-//W3C//DTD SVG 20010904//EN"
 "http://www.w3.org/TR/2001/REC-SVG-20010904/DTD/svg10.dtd">
<svg version="1.0" xmlns="http://www.w3.org/2000/svg"
 width="353.000000pt" height="353.000000pt" viewBox="0 0 353.000000 353.000000"
 preserveAspectRatio="xMidYMid meet">
<metadata>
Created by potrace 1.14, written by Peter Selinger 2001-2017
</metadata>
<g transform="translate(0.000000,353.000000) scale(0.100000,-0.100000)"
fill="#000000" stroke="none">
<path d="M240 2683 c0 -31 3 -54 6 -50 3 3 20 1 37 -5 111 -35 170 -92 326
-313 39 -55 74 -105 79 -110 8 -10 49 -68 106 -150 12 -16 24 -32 27 -35 3 -3
39 -52 79 -110 41 -58 79 -110 85 -117 5 -7 16 -19 23 -27 6 -8 12 -19 12 -23
0 -5 10 -19 23 -33 37 -40 38 -55 9 -87 -15 -16 -58 -64 -97 -108 -38 -44 -72
-82 -75 -85 -3 -3 -36 -41 -75 -85 -108 -123 -135 -152 -210 -226 -71 -70
-167 -129 -212 -129 -12 0 -23 -6 -24 -12 -1 -7 -2 -26 -4 -43 -1 -16 -1 -35
2 -40 5 -15 555 -15 565 -1 4 6 8 29 8 52 0 39 -1 41 -33 42 -120 5 -125 84
-15 230 47 61 205 250 238 282 8 8 58 65 110 125 52 61 97 112 100 115 3 3 37
42 77 87 50 58 72 77 75 65 2 -9 3 -188 3 -397 -1 -345 -3 -383 -19 -417 -26
-53 -71 -78 -153 -84 -37 -3 -70 -9 -73 -14 -3 -5 -4 -28 -2 -52 l4 -44 364
-1 c264 -1 368 2 377 11 8 8 81 12 237 12 257 1 350 7 453 30 39 9 78 16 85
17 6 0 12 5 12 10 0 6 3 8 6 4 8 -8 112 49 154 86 44 38 120 138 114 149 -3 4
-1 8 4 8 6 0 13 12 17 28 5 15 9 32 11 37 30 98 25 201 -13 286 -16 35 -41 77
-56 93 -14 15 -27 31 -29 35 -2 4 -26 24 -55 43 -42 29 -110 58 -223 95 -11 4
-9 7 9 14 168 65 272 177 296 320 11 65 5 157 -14 204 -6 17 -17 44 -24 60
-22 56 -102 142 -169 182 -63 38 -183 82 -242 88 -22 3 -61 8 -86 13 -25 4
-142 9 -260 10 -118 2 -217 7 -220 12 -3 5 -167 8 -379 7 l-374 -2 1 -42 c0
-24 1 -47 1 -53 1 -5 22 -10 49 -10 104 0 167 -38 186 -113 7 -27 11 -130 11
-262 -1 -200 -3 -219 -20 -231 -10 -7 -31 -25 -47 -39 -15 -14 -28 -22 -28
-18 0 4 -6 0 -12 -8 -7 -9 -36 -34 -64 -57 -58 -47 -50 -50 -119 53 -22 33
-44 64 -48 70 -22 27 -217 306 -217 310 0 3 -7 13 -15 22 -8 10 -46 62 -84
117 -85 120 -141 180 -189 205 -64 33 -160 52 -299 56 l-103 4 0 -56z m2205
-79 c61 -19 114 -44 139 -64 74 -59 126 -133 142 -201 19 -77 8 -179 -26 -253
-21 -47 -89 -126 -108 -126 -6 0 -12 -4 -12 -9 0 -9 -34 -24 -90 -43 -67 -21
-335 -31 -440 -16 -25 4 -50 7 -56 7 -13 1 -17 679 -5 699 9 14 49 22 151 29
47 3 86 6 87 7 8 7 177 -17 218 -30z m-75 -818 c184 -25 319 -110 385 -241 27
-55 30 -68 30 -167 0 -72 -4 -111 -12 -119 -7 -7 -13 -21 -13 -31 0 -10 -3
-18 -8 -18 -4 0 -15 -15 -25 -32 -35 -63 -162 -145 -252 -163 -146 -27 -377
-20 -471 15 l-22 9 1 372 2 373 40 4 c22 1 44 4 48 5 17 5 254 -1 297 -7z"/>
</g>
</svg>
